HIERARCHY
ROOT Hips
{
  OFFSET 5.84602e-005 68.8428 3.50346
  CHANNELS 6 Xposition Yposition Zposition Zrotation Xrotation Yrotation
  JOINT Spine
  {
    OFFSET 0 8.597 -4.6522
    CHANNELS 3 Zrotation Xrotation Yrotation
    JOINT Spine1
    {
      OFFSET 0 7.8454 0.4098
      CHANNELS 3 Zrotation Xrotation Yrotation
      JOINT Spine2
      {
        OFFSET 0 9.7078 -2.1609
        CHANNELS 3 Zrotation Xrotation Yrotation
        JOINT Neck
        {
          OFFSET 0 21.8761 -0.4549
          CHANNELS 3 Zrotation Xrotation Yrotation
          JOINT Head
          {
            OFFSET 0 12.3537 3.3602
            CHANNELS 3 Zrotation Xrotation Yrotation
            End Site
            {
              OFFSET 0.0001 18.9506 0.5657
            }
          }
        }
        JOINT LeftShoulder
        {
          OFFSET 2.2086 21.1115 7.2329
          CHANNELS 3 Zrotation Xrotation Yrotation
          JOINT LeftArm
          {
            OFFSET 13.1193 3.0282 -4.8998
            CHANNELS 3 Zrotation Xrotation Yrotation
            JOINT LeftForeArm
            {
              OFFSET 27.4081 -0.0973053 -0.2375
              CHANNELS 3 Zrotation Xrotation Yrotation
              JOINT LeftHand
              {
                OFFSET 22.8641 0.0662994 -0.1369
                CHANNELS 3 Zrotation Xrotation Yrotation
                JOINT LeftHandIndex1
                {
                  OFFSET 8.8614 0.775009 2.4612
                  CHANNELS 3 Zrotation Xrotation Yrotation
                  JOINT LeftHandIndex2
                  {
                    OFFSET 3.3146 -0.808304 0.5841
                    CHANNELS 3 Zrotation Xrotation Yrotation
                    JOINT LeftHandIndex3
                    {
                      OFFSET 2.2628 -0.552002 0.3989
                      CHANNELS 3 Zrotation Xrotation Yrotation
                      End Site
                      {
                        OFFSET 1.6102 -0.4807 0.2612
                      }
                    }
                  }
                }
                JOINT LeftHandMiddle1
                {
                  OFFSET 8.9937 0.895004 0.2143
                  CHANNELS 3 Zrotation Xrotation Yrotation
                  JOINT LeftHandMiddle2
                  {
                    OFFSET 4.0984 0.0113983 -0.0242
                    CHANNELS 3 Zrotation Xrotation Yrotation
                    JOINT LeftHandMiddle3
                    {
                      OFFSET 2.2716 0.00689697 -0.0138001
                      CHANNELS 3 Zrotation Xrotation Yrotation
                      End Site
                      {
                        OFFSET 2.0404 -0.1441 0.0027
                      }
                    }
                  }
                }
                JOINT LeftHandRing1
                {
                  OFFSET 8.5234 0.597198 -2.0164
                  CHANNELS 3 Zrotation Xrotation Yrotation
                  JOINT LeftHandRing2
                  {
                    OFFSET 3.7188 -0.188293 -0.2328
                    CHANNELS 3 Zrotation Xrotation Yrotation
                    JOINT LeftHandRing3
                    {
                      OFFSET 2.1191 -0.106598 -0.1332
                      CHANNELS 3 Zrotation Xrotation Yrotation
                      End Site
                      {
                        OFFSET 1.8737 -0.2304 -0.0886
                      }
                    }
                  }
                }
                JOINT LeftHandPinky1
                {
                  OFFSET 7.9094 -0.601089 -3.4825
                  CHANNELS 3 Zrotation Xrotation Yrotation
                  JOINT LeftHandPinky2
                  {
                    OFFSET 2.2874 -0.477005 -0.6314
                    CHANNELS 3 Zrotation Xrotation Yrotation
                    JOINT LeftHandPinky3
                    {
                      OFFSET 1.6774 -0.349396 -0.4633
                      CHANNELS 3 Zrotation Xrotation Yrotation
                      End Site
                      {
                        OFFSET 1.4888 -0.4091 -0.3416
                      }
                    }
                  }
                }
                JOINT LeftHandThumb1
                {
                  OFFSET 1.833 -1.3875 1.3896
                  CHANNELS 3 Zrotation Xrotation Yrotation
                  JOINT LeftHandThumb2
                  {
                    OFFSET 3.4129 -1.121 2.5732
                    CHANNELS 3 Zrotation Xrotation Yrotation
                    JOINT LeftHandThumb3
                    {
                      OFFSET 2.2474 -0.804199 1.6192
                      CHANNELS 3 Zrotation Xrotation Yrotation
                      End Site
                      {
                        OFFSET 1.6527 -0.5689 1.1317
                      }
                    }
                  }
                }
              }
            }
          }
        }
        JOINT RightShoulder
        {
          OFFSET -2.2086 21.1115 7.2329
          CHANNELS 3 Zrotation Xrotation Yrotation
          JOINT RightArm
          {
            OFFSET -13.1216 3.0287 -4.9007
            CHANNELS 3 Zrotation Xrotation Yrotation
            JOINT RightForeArm
            {
              OFFSET -27.4081 -0.0973053 -0.2375
              CHANNELS 3 Zrotation Xrotation Yrotation
              JOINT RightHand
              {
                OFFSET -22.8641 0.0664063 -0.1369
                CHANNELS 3 Zrotation Xrotation Yrotation
                JOINT RightHandIndex1
                {
                  OFFSET -8.8614 0.774994 2.4612
                  CHANNELS 3 Zrotation Xrotation Yrotation
                  JOINT RightHandIndex2
                  {
                    OFFSET -3.3146 -0.808304 0.5841
                    CHANNELS 3 Zrotation Xrotation Yrotation
                    JOINT RightHandIndex3
                    {
                      OFFSET -2.2628 -0.552002 0.3989
                      CHANNELS 3 Zrotation Xrotation Yrotation
                      End Site
                      {
                        OFFSET -1.6102 -0.4807 0.2612
                      }
                    }
                  }
                }
                JOINT RightHandMiddle1
                {
                  OFFSET -8.9937 0.894989 0.2143
                  CHANNELS 3 Zrotation Xrotation Yrotation
                  JOINT RightHandMiddle2
                  {
                    OFFSET -4.0984 0.0113983 -0.0242
                    CHANNELS 3 Zrotation Xrotation Yrotation
                    JOINT RightHandMiddle3
                    {
                      OFFSET -2.2716 0.00691223 -0.0138001
                      CHANNELS 3 Zrotation Xrotation Yrotation
                      End Site
                      {
                        OFFSET -2.0404 -0.1441 0.0027
                      }
                    }
                  }
                }
                JOINT RightHandRing1
                {
                  OFFSET -8.5234 0.597198 -2.0164
                  CHANNELS 3 Zrotation Xrotation Yrotation
                  JOINT RightHandRing2
                  {
                    OFFSET -3.7188 -0.188309 -0.2328
                    CHANNELS 3 Zrotation Xrotation Yrotation
                    JOINT RightHandRing3
                    {
                      OFFSET -2.1191 -0.106598 -0.1332
                      CHANNELS 3 Zrotation Xrotation Yrotation
                      End Site
                      {
                        OFFSET -1.8737 -0.2304 -0.0886
                      }
                    }
                  }
                }
                JOINT RightHandPinky1
                {
                  OFFSET -7.9094 -0.601105 -3.4825
                  CHANNELS 3 Zrotation Xrotation Yrotation
                  JOINT RightHandPinky2
                  {
                    OFFSET -2.2874 -0.477005 -0.6314
                    CHANNELS 3 Zrotation Xrotation Yrotation
                    JOINT RightHandPinky3
                    {
                      OFFSET -1.6774 -0.349396 -0.4633
                      CHANNELS 3 Zrotation Xrotation Yrotation
                      End Site
                      {
                        OFFSET -1.4888 -0.4091 -0.3416
                      }
                    }
                  }
                }
                JOINT RightHandThumb1
                {
                  OFFSET -1.833 -1.38751 1.3896
                  CHANNELS 3 Zrotation Xrotation Yrotation
                  JOINT RightHandThumb2
                  {
                    OFFSET -3.41299 -1.12099 2.5732
                    CHANNELS 3 Zrotation Xrotation Yrotation
                    JOINT RightHandThumb3
                    {
                      OFFSET -2.24741 -0.804108 1.6192
                      CHANNELS 3 Zrotation Xrotation Yrotation
                      End Site
                      {
                        OFFSET -1.6527 -0.5689 1.1317
                      }
                    }
                  }
                }
              }
            }
          }
        }
      }
    }
  }
  JOINT RightUpLeg
  {
    OFFSET -9.1966 3.8861 -0.7581
    CHANNELS 3 Zrotation Xrotation Yrotation
    JOINT RightLeg
    {
      OFFSET -0.7359 -41.0265 0
      CHANNELS 3 Zrotation Xrotation Yrotation
      JOINT RightFoot
      {
        OFFSET 0 -40.2855 0
        CHANNELS 3 Zrotation Xrotation Yrotation
        JOINT RightToeBase
        {
          OFFSET 0 -5.6122 11.7359
          CHANNELS 3 Zrotation Xrotation Yrotation
          End Site
          {
            OFFSET 0 0 7.8731
          }
        }
      }
    }
  }
  JOINT LeftUpLeg
  {
    OFFSET 9.1965 3.8864 -0.7581
    CHANNELS 3 Zrotation Xrotation Yrotation
    JOINT LeftLeg
    {
      OFFSET 0.7359 -41.0268 0
      CHANNELS 3 Zrotation Xrotation Yrotation
      JOINT LeftFoot
      {
        OFFSET 0 -40.2855 0
        CHANNELS 3 Zrotation Xrotation Yrotation
        JOINT LeftToeBase
        {
          OFFSET 0 -5.6122 11.7359
          CHANNELS 3 Zrotation Xrotation Yrotation
          End Site
          {
            OFFSET 0 0 7.8731
          }
        }
      }
    }
  }
}
MOTION
Frames:	4
Frame Time:	0.0333333
5.84602e-005 68.8428 3.50346 0 0 -0 0 0 -0 0 0 -0 0 0 -0 0 0 -0 0 0 -0 0 0 -0 0 0 -0 0 0 -0 0 0 -0 0 0 -0 0 0 -0 0 0 -0 0 0 -0 -0.0146107 -8.87603e-005 -2.63497e-007 2.99804e-018 -2.42657e-020 -1.42182e-022 0 0 -0 -0.0187562 -0.001176 5.858e-005 5.06224e-018 3.88251e-019 1.21329e-020 0 0 -0 -0.012269 -0.00324817 0.000675346 -1.74678e-018 3.88251e-019 -0 0 0 -0 0 0 -0 0 0 -0 0 0 -0 0 0 -0 0 0 -0 0 0 -0 0 0 -0 0 0 -0 0 0 -0 0 0 -0 0.0149955 -9.10982e-005 2.64101e-007 -9.69331e-018 1.21329e-020 -4.7394e-023 0 0 -0 0.0189956 -0.00119102 -5.96516e-005 -5.41541e-019 0 2.42657e-020 0 0 -0 0.0122698 -0.00324857 -0.000673756 -2.00796e-019 0 -1.94126e-019 0 0 -0 0 0 -0 0 0 -0 3.39842 1.33031 -0.0637918 -5.65207e-008 0.834868 -0.000436188 -3.39935 -2.16518 -0.0642563 -8.89002e-024 -1.18485e-023 -1.48106e-024 -3.39844 1.35642 0.0640283 -3.18788e-007 0.782166 -0.000588827 3.39931 -2.13858 0.0634662 1.1399e-023 0 -0 
-17.8325 32.596 26.5976 0.762868 -47.8861 3.08485 -0.776276 5.28573 -0.175006 -1.5462 10.5733 -0.279517 -1.5462 10.5733 -0.279516 -0.0253371 3.54573 0.0968133 11.0462 2.5103 18.9137 7.76062 -0.933753 22.6719 -23.4281 6.57937 -6.62289 -29.4744 13.7604 -7.95041 3.49997 28.1177 1.30108 4.37326e-015 6.36111e-015 -0 -1.33399e-007 7.76399e-007 3.19551e-007 -7.15625e-015 -9.54166e-015 4.77083e-015 4.37326e-015 6.36111e-015 -0 -0.0146386 -9.06121e-005 1.41518e-006 1.19271e-014 -3.18055e-015 -1.59028e-015 4.37326e-015 6.36111e-015 -0 -0.0187161 -0.00117327 5.76197e-005 4.37326e-015 3.18055e-015 -6.36111e-015 4.37326e-015 6.36111e-015 -0 -0.0123079 -0.00325667 0.000675549 -3.97569e-016 0 1.59028e-015 4.37326e-015 6.36111e-015 -0 -1.33399e-007 7.76399e-007 3.19551e-007 -7.15625e-015 -9.54166e-015 4.77083e-015 6.21076 -3.35975 1.68527 35.7512 -8.61758 8.74334 20.8197 29.5998 29.4403 13.0727 -0.100597 -3.87587 -4.41391e-031 7.95139e-015 3.18055e-015 -4.20123e-007 -6.29932e-007 3.90399e-007 -9.54166e-015 4.77083e-015 -0 -4.41391e-031 7.95139e-015 3.18055e-015 0.0150557 -8.99316e-005 1.12103e-005 -3.18055e-015 -6.36111e-015 -1.59028e-014 -4.41391e-031 7.95139e-015 3.18055e-015 0.0189684 -0.00118843 -5.36716e-005 -6.36111e-015 -1.59028e-015 -0 -4.41391e-031 7.95139e-015 3.18055e-015 0.0122314 -0.00323898 -0.000676898 9.54166e-015 -1.59028e-015 -1.59028e-014 -4.41391e-031 7.95139e-015 3.18055e-015 -4.20123e-007 -6.29932e-007 3.90399e-007 -9.54166e-015 4.77083e-015 -0 -6.93768 -2.21793 -8.85561 -4.76453 0.344724 5.68118 -6.4007 -0.773699 -10.3801 -6.84726e-007 -6.58003e-007 2.8214e-006 0.305283 -12.9111 9.62396 6.7661 33.6377 -9.82086 3.24629 3.46642 -1.44725 3.9525e-008 -1.0429e-006 4.90058e-008 
-31.5172 5.28675 41.3773 34.6795 -83.9597 37.5473 -1.37486 9.35928 -0.433892 -2.73269 18.7262 -0.649746 -2.73269 18.7262 -0.649746 -0.0533055 6.3031 0.172801 18.5523 3.92803 33.6805 14.267 -1.37191 40.3138 -40.5853 11.5267 -11.9404 -49.5555 23.9411 -15.0471 4.88335 49.9546 3.17165 5.21111e-008 -8.4336e-008 -3.95092e-008 -6.77444e-007 1.09637e-006 5.1362e-007 5.21111e-008 -8.4336e-008 -3.95092e-008 5.21111e-008 -8.4336e-008 -3.95092e-008 -0.0146315 -8.78456e-005 6.50414e-006 5.21111e-008 -8.4331e-008 -3.952e-008 5.21111e-008 -8.4336e-008 -3.95092e-008 -0.01874 -0.00117374 5.71002e-005 5.21107e-008 -8.43296e-008 -3.95236e-008 5.21111e-008 -8.4336e-008 -3.95092e-008 -0.0122689 -0.00324653 0.000674376 5.21095e-008 -8.43321e-008 -3.95197e-008 5.21111e-008 -8.4336e-008 -3.95092e-008 -6.77444e-007 1.09637e-006 5.1362e-007 5.21111e-008 -8.4336e-008 -3.95092e-008 11.1786 -5.96725 3.00719 65.3978 -14.9336 15.8594 15.1775 37.2087 62.6645 23.1486 -0.176801 -6.88787 1.2204e-006 -7.93827e-007 2.85827e-006 1.42914e-006 5.86009e-007 -6.102e-007 1.47752e-006 2.65045e-006 3.0419e-006 1.2204e-006 -7.93827e-007 2.85827e-006 0.0149492 -8.77401e-005 5.65842e-006 1.47788e-006 2.65085e-006 3.04155e-006 1.2204e-006 -7.93827e-007 2.85827e-006 0.0189589 -0.00118792 -5.644e-005 1.47801e-006 2.65093e-006 3.04144e-006 1.2204e-006 -7.93827e-007 2.85827e-006 0.0122784 -0.00324809 -0.0006763 1.47789e-006 2.65071e-006 3.04156e-006 1.2204e-006 -7.93827e-007 2.85827e-006 1.42914e-006 5.86009e-007 -6.102e-007 1.47752e-006 2.65045e-006 3.0419e-006 -15.6711 -4.81324 -15.8163 -8.51671 0.816092 10.0948 -8.63016 -0.475319 -18.4265 3.21103e-006 1.94503e-007 1.34007e-006 6.02367 -22.5451 18.0331 25.7994 54.8201 -28.4589 3.0816 8.64647 -1.25248 1.99465e-007 -2.24366e-008 -7.24492e-008 
-33.4779 1.32867 43.2507 94.8438 -86.0578 97.7091 -1.4587 9.9381 -0.481334 -2.89819 19.8851 -0.717665 -2.89818 19.8851 -0.717663 -0.0579035 6.69708 0.183749 19.5602 4.06883 35.7943 15.2216 -1.4019 42.8346 -42.959 12.2128 -12.7197 -52.1942 25.3281 -16.1751 4.88331 53.0681 3.60884 -1.1382e-007 1.65178e-007 7.26894e-008 3.03633e-006 1.29086e-006 1.52567e-006 2.04641e-006 5.55579e-007 1.94863e-006 -1.1382e-007 1.65178e-007 7.26894e-008 -0.014589 -9.09825e-005 1.18498e-006 2.04837e-006 5.55343e-007 1.9487e-006 -1.1382e-007 1.65178e-007 7.26894e-008 -0.0187677 -0.0011791 6.56514e-005 1.76556e-031 -1.59028e-015 6.36111e-015 -1.1382e-007 1.65178e-007 7.26894e-008 -0.0122538 -0.00324484 0.000683327 2.04811e-006 5.55794e-007 1.94854e-006 -1.1382e-007 1.65178e-007 7.26894e-008 3.03633e-006 1.29086e-006 1.52567e-006 2.04641e-006 5.55579e-007 1.94863e-006 11.8982 -6.33909 3.19739 69.7046 -15.8034 16.6934 13.6372 36.309 67.3677 24.2697 -0.183082 -7.30802 -1.59028e-014 -1.90833e-014 1.90833e-014 -1.90833e-014 -2.22639e-014 1.59028e-014 -1.90833e-014 -1.59028e-014 1.90833e-014 -1.59028e-014 -1.90833e-014 1.90833e-014 0.0150345 -8.89167e-005 1.76229e-006 3.18055e-015 -6.36111e-015 3.18055e-015 -1.59028e-014 -1.90833e-014 1.90833e-014 0.0189471 -0.00119071 -5.88683e-005 -6.36111e-015 0 3.18055e-015 -1.59028e-014 -1.90833e-014 1.90833e-014 0.0122419 -0.00324284 -0.000682649 -1.59028e-014 -1.27222e-014 1.27222e-014 -1.59028e-014 -1.90833e-014 1.90833e-014 -1.90833e-014 -2.22639e-014 1.59028e-014 -1.90833e-014 -1.59028e-014 1.90833e-014 -16.9872 -5.45613 -16.9476 -9.05519 1.6073 10.7961 -8.91637 -0.413257 -19.5742 3.18055e-015 3.18055e-015 -4.77083e-015 7.0712 -23.8269 19.3536 30.4811 57.3093 -32.7675 3.06479 9.36745 -1.29452 -1.97665e-007 2.50366e-008 7.64674e-008 
